<svg xmlns="http://www.w3.org/2000/svg" xmlns:xlink="http://www.w3.org/1999/xlink" xml:space="preserve" y="0" x="0" id="圖層_1" version="1.1" preserveAspectRatio="xMidYMid" style="margin-top:0px;margin-right:0px;margin-bottom:0px;margin-left:0px;display:block;shape-rendering:auto;background-position-x:0%;background-position-y:0%;background-size:auto;background-origin:padding-box;background-clip:border-box;background:scroll rgba(0, 0, 0, 0) none  repeat;width:200px;height:200px;;animation:none" viewBox="16.13 19.23 67.75 62.11"><g class="ldl-scale" style="transform-origin:50px 50px;transform:matrix(0.8, 0, 0, 0.8, 0, 0);;animation:none"><g class="ldl-ani"><g class="ldl-layer"><g class="ldl-ani"><g><g class="ldl-layer"><g class="ldl-ani" style="transform-origin:50px 50px;transform:matrix(1.03, 0, 0, 1.03, 0, 0);animation-duration:1s;animation-timing-function:linear;animation-delay:-0.5625s;animation-iteration-count:infinite;animation-direction:normal;animation-fill-mode:forwards;animation-play-state:paused;animation-name:animate;animation-timeline:auto;animation-range-start:normal;animation-range-end:normal;transform-box:view-box;;animation:none"><path fill="#333" d="M89.115 31.867a.945.945 0 0 0-.567-.691L50.137 15.072a.952.952 0 0 0-1.054.214L12.792 52.451c-.319.327-.283.709-.253.858s.146.515.567.691l6.303 2.643 3.338 1.399 28.77 12.062a.95.95 0 0 0 1.054-.214l26.337-26.971 2.528-2.589 7.426-7.605a.949.949 0 0 0 .253-.858z" style="stroke-width:1px;fill:rgb(51, 51, 51);;animation:none"/></g></g>
<g class="ldl-layer"><g class="ldl-ani" style="transform-origin:50px 50px;transform:matrix(1.01568, 0, 0, 1.01568, 0, 0);animation-duration:1s;animation-timing-function:linear;animation-delay:-0.625s;animation-iteration-count:infinite;animation-direction:normal;animation-fill-mode:forwards;animation-play-state:paused;animation-name:animate;animation-timeline:auto;animation-range-start:normal;animation-range-end:normal;transform-box:view-box;;animation:none"><path fill="#e0e0e0" d="M82.245 44.318L54.979 72.242a4.3 4.3 0 0 1-4.763.966L20.219 60.632l-3.338-1.399-2.364-.991-1.714-.719c-.523-.219-1.07-.68-1.575-.169-.224.227-.334.541-.413.85-.279 1.087-.222 2.275-.179 3.388.046 1.188.217 2.371.496 3.527.168.694.372 1.379.61 2.053.229.647.471 1.321.837 1.906.214.341.511.729.896.871a6.3 6.3 0 0 1 .259.101l.526.221 1.471.617 1.962.823 2.372.995 2.702 1.133 2.951 1.237 3.119 1.308 3.206 1.344 3.213 1.347 3.139 1.316 2.984 1.251 2.749 1.152 2.433 1.02 2.036.854a1031.432 1031.432 0 0 0 2.558 1.072l.361.151a.953.953 0 0 0 1.054-.214l33.674-34.485V40.225l-1.471 1.507-2.528 2.586z" style="stroke-width:1px;fill:rgb(224, 224, 224);;animation:none"/></g></g>
<g class="ldl-layer"><g class="ldl-ani" style="transform-origin:50px 50px;transform:matrix(0.99625, 0, 0, 0.99625, 0, 0);animation-duration:1s;animation-timing-function:linear;animation-delay:-0.6875s;animation-iteration-count:infinite;animation-direction:normal;animation-fill-mode:forwards;animation-play-state:paused;animation-name:animate;animation-timeline:auto;animation-range-start:normal;animation-range-end:normal;transform-box:view-box;;animation:none"><path d="M91.27 35.076a4.315 4.315 0 0 0 1.143-3.879 4.319 4.319 0 0 0-2.564-3.126L51.438 11.968a4.303 4.303 0 0 0-4.763.966l-.539.552-2.508 2.568-4.085 4.183-5.142 5.266-5.679 5.816-5.696 5.834-5.194 5.319-4.172 4.272c-1.183 1.211-2.366 2.294-3.319 3.724-.655.984-1.058 2.005-1.466 3.11a22.866 22.866 0 0 0-.797 2.62 21.169 21.169 0 0 0-.532 3.459 21.15 21.15 0 0 0 .695 6.939c.483 1.797 1.101 3.638 2.295 5.097.569.695 1.173 1.217 2.01 1.507.228.079.45.189.673.282l4.432 1.858 6.439 2.7 7.409 3.106 7.342 3.078 6.237 2.615 4.094 1.716 1.041.437a4.304 4.304 0 0 0 4.763-.966L91.27 50.862a4.32 4.32 0 0 0-1.421-7.005l-.239-.1v-6.981l1.66-1.7zm-5.025 7.27V51.19L52.571 85.676a.951.951 0 0 1-1.054.214l-.361-.151-1-.419-1.558-.653-2.036-.854-2.433-1.02-2.749-1.152-2.984-1.251-3.139-1.316-3.213-1.347-3.206-1.344-3.119-1.308-2.951-1.237-2.702-1.133-2.372-.995-1.962-.823-1.471-.617-.526-.221a6.3 6.3 0 0 0-.259-.101c-.385-.142-.682-.53-.896-.871-.366-.584-.608-1.258-.837-1.906a20.935 20.935 0 0 1-.61-2.053 18.013 18.013 0 0 1-.496-3.527c-.043-1.113-.1-2.302.179-3.388.079-.309.189-.623.413-.85.505-.511 1.051-.051 1.575.169l1.714.719 2.364.991 3.338 1.399 29.997 12.576a4.299 4.299 0 0 0 4.763-.966l27.266-27.924 2.528-2.589 1.471-1.507v2.125zm2.617-9.621l-7.426 7.605-2.528 2.589L52.571 69.89a.953.953 0 0 1-1.054.214l-28.77-12.062-3.338-1.399L13.106 54a.945.945 0 0 1-.513-1.235c.017-.037.036-.074.054-.11a.914.914 0 0 1 .145-.204l36.291-37.165a.951.951 0 0 1 1.054-.214l38.411 16.104a.945.945 0 0 1 .567.691.949.949 0 0 1-.253.858z" style="stroke-width:1px;;animation:none"/></g></g></g></g></g>
<g class="ldl-layer"><g class="ldl-ani"><g><g class="ldl-layer"><g class="ldl-ani" style="transform-origin:50px 50px;transform:matrix(0.97254, 0, 0, 0.97254, 0, 0);animation-duration:1s;animation-timing-function:linear;animation-delay:-0.75s;animation-iteration-count:infinite;animation-direction:normal;animation-fill-mode:forwards;animation-play-state:paused;animation-name:animate;animation-timeline:auto;animation-range-start:normal;animation-range-end:normal;transform-box:view-box;;animation:none"><path d="M44.595 51.362L19.597 26.364l9.847-9.847 24.998 24.998z" stroke-linejoin="round" stroke-linecap="round" stroke-width="2.14297857" stroke="#000" fill="#eba523" style="stroke-width:2.14298px;fill:rgb(235, 165, 35);stroke:rgb(0, 0, 0);;animation:none"/></g></g>
<g class="ldl-layer"><g class="ldl-ani" style="transform-origin:50px 50px;transform:matrix(0.943634, 0, 0, 0.943634, 0, 0);animation-duration:1s;animation-timing-function:linear;animation-delay:-0.8125s;animation-iteration-count:infinite;animation-direction:normal;animation-fill-mode:forwards;animation-play-state:paused;animation-name:animate;animation-timeline:auto;animation-range-start:normal;animation-range-end:normal;transform-box:view-box;;animation:none"><path stroke-linecap="round" stroke-width="2.143" stroke="#000" fill="#e0e0e0" d="M29.444 16.516l-4.992-4.992a2.93 2.93 0 0 0-4.144 0l-5.704 5.704a2.93 2.93 0 0 0 0 4.144l4.992 4.992 9.848-9.848z" style="stroke-width:2.143px;fill:rgb(224, 224, 224);stroke:rgb(0, 0, 0);;animation:none"/></g></g>
<g class="ldl-layer"><g class="ldl-ani" style="transform-origin:50px 50px;transform:matrix(0.921517, 0, 0, 0.921517, 0, 0);animation-duration:1s;animation-timing-function:linear;animation-delay:-0.875s;animation-iteration-count:infinite;animation-direction:normal;animation-fill-mode:forwards;animation-play-state:paused;animation-name:animate;animation-timeline:auto;animation-range-start:normal;animation-range-end:normal;transform-box:view-box;;animation:none"><path d="M51.267 52.738l4.551-4.551-1.376-6.673-4.924 4.924-4.923 4.924z" stroke-linejoin="round" stroke-linecap="round" stroke-width="2.143" stroke="#000" fill="#f5e6c8" style="stroke-width:2.143px;fill:rgb(245, 230, 200);stroke:rgb(0, 0, 0);;animation:none"/></g></g>
<g class="ldl-layer"><g class="ldl-ani" style="transform-origin:50px 50px;transform:matrix(0.910362, 0, 0, 0.910362, 0, 0);animation-duration:1s;animation-timing-function:linear;animation-delay:-0.9375s;animation-iteration-count:infinite;animation-direction:normal;animation-fill-mode:forwards;animation-play-state:paused;animation-name:animate;animation-timeline:auto;animation-range-start:normal;animation-range-end:normal;transform-box:view-box;;animation:none"><path d="M57 53.92l-1.182-5.733-4.551 4.551z" stroke-linejoin="round" stroke-linecap="round" stroke-width="2.143" stroke="#000" fill="#333" style="stroke-width:2.143px;fill:rgb(51, 51, 51);stroke:rgb(0, 0, 0);;animation:none"/></g></g>
<g class="ldl-layer"><g class="ldl-ani" style="transform-origin:50px 50px;transform:matrix(0.91, 0, 0, 0.91, 0, 0);animation-duration:1s;animation-timing-function:linear;animation-delay:-1s;animation-iteration-count:infinite;animation-direction:normal;animation-fill-mode:forwards;animation-play-state:paused;animation-name:animate;animation-timeline:auto;animation-range-start:normal;animation-range-end:normal;transform-box:view-box;;animation:none"><path d="M45.826 42.745L28.403 25.323" stroke-linejoin="round" stroke-linecap="round" stroke-width="2.143" stroke="#000" fill="none" style="stroke-width:2.143px;fill:none;stroke:rgb(0, 0, 0);;animation:none"/></g></g></g></g></g>
<metadata xmlns:d="https://loading.io/stock/"/></g></g>
<STYLE type="text/css">@keyframes animate { 0.00% {transform: translate(0.00px,0.00px) rotate(0.00deg) scale(0.91, 0.91) skew(0deg, 0.00deg) ;opacity: 1.00;}4.00% {transform: translate(0.00px,0.00px) rotate(0.00deg) scale(0.91, 0.91) ;}8.00% {animation-timing-function: cubic-bezier(0.69,0.60,0.35,0.27);transform: translate(0.00px,0.00px) rotate(0.00deg) scale(0.91, 0.91) ;}14.00% {transform: translate(0.00px,0.00px) rotate(0.00deg) scale(0.93, 0.93) ;}18.00% {transform: translate(0.00px,0.00px) rotate(0.00deg) scale(0.94, 0.94) ;}22.00% {animation-timing-function: cubic-bezier(0.67,0.66,0.34,0.33);transform: translate(0.00px,0.00px) rotate(0.00deg) scale(0.96, 0.96) ;}26.00% {transform: translate(0.00px,0.00px) rotate(0.00deg) scale(0.97, 0.97) ;}30.00% {transform: translate(0.00px,0.00px) rotate(0.00deg) scale(0.99, 0.99) ;}34.00% {animation-timing-function: cubic-bezier(0.65,0.71,0.32,0.38);transform: translate(0.00px,0.00px) rotate(0.00deg) scale(1.01, 1.01) ;}40.00% {animation-timing-function: cubic-bezier(0.64,0.74,0.31,0.41);transform: translate(0.00px,0.00px) rotate(0.00deg) scale(1.02, 1.02) ;}46.00% {animation-timing-function: cubic-bezier(0.60,0.91,0.23,0.63);transform: translate(0.00px,0.00px) rotate(0.00deg) scale(1.03, 1.03) ;}50.00% {transform: translate(0.00px,0.00px) rotate(0.00deg) scale(1.03, 1.03) ;}54.00% {transform: translate(0.00px,0.00px) rotate(0.00deg) scale(1.03, 1.03) ;}58.00% {animation-timing-function: cubic-bezier(0.69,0.60,0.35,0.27);transform: translate(0.00px,0.00px) rotate(0.00deg) scale(1.03, 1.03) ;}64.00% {transform: translate(0.00px,0.00px) rotate(0.00deg) scale(1.01, 1.01) ;}68.00% {transform: translate(0.00px,0.00px) rotate(0.00deg) scale(1.00, 1.00) ;}72.00% {animation-timing-function: cubic-bezier(0.67,0.66,0.34,0.33);transform: translate(0.00px,0.00px) rotate(0.00deg) scale(0.98, 0.98) ;}76.00% {animation-timing-function: cubic-bezier(0.66,0.68,0.33,0.35);transform: translate(0.00px,0.00px) rotate(0.00deg) scale(0.97, 0.97) ;}82.00% {animation-timing-function: cubic-bezier(0.65,0.71,0.32,0.38);transform: translate(0.00px,0.00px) rotate(0.00deg) scale(0.94, 0.94) ;}88.00% {animation-timing-function: cubic-bezier(0.65,0.73,0.31,0.40);transform: translate(0.00px,0.00px) rotate(0.00deg) scale(0.92, 0.92) ;}94.00% {animation-timing-function: cubic-bezier(0.63,0.80,0.28,0.48);transform: translate(0.00px,0.00px) rotate(0.00deg) scale(0.91, 0.91) ;}100.00% {animation-timing-function: cubic-bezier(0.63,0.80,0.28,0.48);transform: translate(0.00px,0.00px) rotate(0.00deg) scale(0.91, 0.91) ;} }</STYLE><!-- [ldio] generated by https://loading.io --></svg>