<svg width="604" height="122" viewBox="0 0 604 122" fill="none" xmlns="http://www.w3.org/2000/svg">
<path d="M10.128 93.152C7.056 93.152 4.83733 92.7253 3.472 91.872C2.10667 90.9333 1.25333 89.696 0.912 88.16C0.656 86.624 0.528 85.0453 0.528 83.424V13.408C0.528 9.65333 1.25333 7.09333 2.704 5.728C4.15467 4.36266 6.75733 3.67999 10.512 3.67999H58.896C60.6027 3.67999 62.1813 3.85066 63.632 4.19199C65.0827 4.448 66.2347 5.25866 67.088 6.62399C68.0267 7.98933 68.496 10.2933 68.496 13.536C68.496 16.608 68.0267 18.8267 67.088 20.192C66.1493 21.5573 64.912 22.4107 63.376 22.752C61.9253 23.008 60.3467 23.136 58.64 23.136H19.984V39.648H46.224C47.9307 39.648 49.424 39.776 50.704 40.032C52.0693 40.288 53.136 41.0133 53.904 42.208C54.672 43.4027 55.056 45.408 55.056 48.224C55.056 50.9547 54.672 52.9173 53.904 54.112C53.136 55.2213 52.0693 55.904 50.704 56.16C49.424 56.416 47.888 56.544 46.096 56.544H19.984V83.552C19.984 85.1733 19.8133 86.752 19.472 88.288C19.1307 89.7387 18.2773 90.9333 16.912 91.872C15.632 92.7253 13.3707 93.152 10.128 93.152ZM118.472 93.024C115.315 93.024 112.968 92.4693 111.432 91.36C109.981 90.2507 109.256 88.8853 109.256 87.264L110.536 85.088C110.024 85.9413 109.043 87.008 107.592 88.288C106.141 89.4827 104.264 90.592 101.96 91.616C99.656 92.5547 96.7973 93.024 93.384 93.024C89.4587 93.024 85.704 92.1707 82.12 90.464C78.6213 88.7573 75.5067 86.4107 72.776 83.424C70.0453 80.352 67.8693 76.896 66.248 73.056C64.712 69.216 63.944 65.1627 63.944 60.896C63.944 56.7147 64.712 52.7467 66.248 48.992C67.8693 45.152 70.0453 41.7813 72.776 38.88C75.592 35.8933 78.7493 33.5467 82.248 31.84C85.7467 30.1333 89.4587 29.28 93.384 29.28C96.5413 29.28 99.2293 29.7493 101.448 30.688C103.667 31.5413 105.501 32.5653 106.952 33.76C108.488 34.9547 109.64 36.1067 110.408 37.216L109.384 35.424C109.299 33.376 109.981 31.84 111.432 30.816C112.968 29.7067 115.357 29.152 118.6 29.152C121.672 29.152 123.848 29.6213 125.128 30.56C126.493 31.4987 127.304 32.736 127.56 34.272C127.901 35.808 128.072 37.4293 128.072 39.136V83.296C128.072 84.9173 127.901 86.496 127.56 88.032C127.304 89.568 126.493 90.8053 125.128 91.744C123.848 92.5973 121.629 93.024 118.472 93.024ZM96.2 73.952C98.4187 73.952 100.424 73.3973 102.216 72.288C104.093 71.0933 105.544 69.5147 106.568 67.552C107.677 65.5893 108.232 63.4133 108.232 61.024C108.232 58.5493 107.677 56.3733 106.568 54.496C105.459 52.5333 103.965 50.9973 102.088 49.888C100.211 48.6933 98.1627 48.096 95.944 48.096C93.4693 48.096 91.2507 48.6933 89.288 49.888C87.4107 51.0827 85.8747 52.6613 84.68 54.624C83.5707 56.5867 83.016 58.8053 83.016 61.28C83.016 63.584 83.5707 65.7173 84.68 67.68C85.8747 69.5573 87.4533 71.0933 89.416 72.288C91.464 73.3973 93.7253 73.952 96.2 73.952ZM147.973 93.024C144.816 93.024 142.554 92.5973 141.189 91.744C139.909 90.8053 139.098 89.6107 138.757 88.16C138.501 86.624 138.373 85.0453 138.373 83.424V38.368C138.373 36.7467 138.544 35.2533 138.885 33.888C139.226 32.4373 140.037 31.2853 141.317 30.432C142.682 29.5787 144.944 29.152 148.101 29.152C150.832 29.152 152.837 29.536 154.117 30.304C155.397 30.9867 156.208 31.84 156.549 32.864C156.976 33.888 157.189 34.8693 157.189 35.808C157.189 36.6613 157.274 37.2587 157.445 37.6L156.677 40.032C156.848 38.752 157.488 37.472 158.597 36.192C159.792 34.8267 161.242 33.632 162.949 32.608C164.741 31.4987 166.618 30.6453 168.581 30.048C170.629 29.4507 172.634 29.152 174.597 29.152C178.693 29.152 182.32 29.92 185.477 31.456C188.72 32.9067 191.45 35.04 193.669 37.856C195.888 40.672 197.552 44 198.661 47.84C199.856 51.5947 200.453 55.7333 200.453 60.256V83.552C200.453 85.1733 200.282 86.752 199.941 88.288C199.685 89.7387 198.874 90.8907 197.509 91.744C196.229 92.5973 194.01 93.024 190.853 93.024C187.61 93.024 185.306 92.5973 183.941 91.744C182.661 90.8053 181.85 89.6107 181.509 88.16C181.168 86.624 180.997 85.0453 180.997 83.424V60.256C180.997 57.696 180.57 55.52 179.717 53.728C178.864 51.936 177.584 50.5707 175.877 49.632C174.17 48.608 172.08 48.096 169.605 48.096C167.13 48.096 164.997 48.608 163.205 49.632C161.413 50.656 160.005 52.064 158.981 53.856C158.042 55.648 157.573 57.7813 157.573 60.256V83.552C157.573 85.1733 157.402 86.752 157.061 88.288C156.805 89.7387 155.994 90.8907 154.629 91.744C153.349 92.5973 151.13 93.024 147.973 93.024ZM242.114 93.664C238.359 93.664 234.519 92.9813 230.594 91.616C226.754 90.1653 223.17 88.0747 219.842 85.344C216.599 82.528 213.997 79.1147 212.034 75.104C210.071 71.008 209.09 66.3147 209.09 61.024C209.09 55.7333 210.071 51.0827 212.034 47.072C213.997 43.0613 216.599 39.6907 219.842 36.96C223.085 34.2293 226.626 32.1813 230.466 30.816C234.391 29.3653 238.189 28.64 241.858 28.64C245.015 28.64 247.831 29.024 250.306 29.792C252.866 30.4747 254.999 31.328 256.706 32.352C258.498 33.376 259.778 34.272 260.546 35.04C261.997 36.1493 263.277 37.2587 264.386 38.368C265.495 39.4773 266.007 40.928 265.922 42.72C265.837 43.6587 265.538 44.64 265.026 45.664C264.514 46.6027 263.874 47.584 263.106 48.608C260.546 52.192 257.986 53.8133 255.426 53.472C254.146 53.216 252.951 52.7893 251.842 52.192C250.818 51.5947 249.794 50.9973 248.77 50.4C247.831 49.7173 246.807 49.1627 245.698 48.736C244.589 48.3093 243.309 48.096 241.858 48.096C239.383 48.096 237.165 48.6507 235.202 49.76C233.239 50.8693 231.661 52.4053 230.466 54.368C229.357 56.3307 228.802 58.592 228.802 61.152C228.802 63.6267 229.357 65.8453 230.466 67.808C231.661 69.7707 233.197 71.3493 235.074 72.544C237.037 73.6533 239.213 74.208 241.602 74.208C243.053 74.208 244.29 74.0373 245.314 73.696C246.423 73.3547 247.362 72.9707 248.13 72.544C248.898 72.032 249.495 71.648 249.922 71.392C250.946 70.7093 251.927 70.112 252.866 69.6C253.805 69.0027 254.786 68.704 255.81 68.704C257.005 68.704 258.242 69.1733 259.522 70.112C260.802 70.9653 262.21 72.3733 263.746 74.336C265.111 76.128 265.879 77.792 266.05 79.328C266.306 80.864 265.965 82.3147 265.026 83.68C264.087 85.0453 262.637 86.368 260.674 87.648C259.991 88.2453 258.754 89.0133 256.962 89.952C255.255 90.8907 253.122 91.744 250.562 92.512C248.087 93.28 245.271 93.664 242.114 93.664ZM290.799 119.008C287.3 117.472 285.252 115.765 284.655 113.888C284.143 112.011 284.612 109.493 286.063 106.336L318.191 34.528C319.642 31.2 321.22 29.2373 322.927 28.64C324.719 27.9573 327.364 28.2987 330.863 29.664C334.276 31.2853 336.239 32.992 336.751 34.784C337.348 36.576 336.964 38.9653 335.599 41.952L303.343 114.272C301.892 117.6 300.314 119.605 298.607 120.288C296.9 120.971 294.298 120.544 290.799 119.008ZM301.935 89.184L271.855 43.36C269.978 40.544 269.21 38.1973 269.551 36.32C269.978 34.4427 271.684 32.5227 274.671 30.56C277.999 28.512 280.559 27.744 282.351 28.256C284.228 28.6827 286.106 30.3467 287.983 33.248L310.127 67.168L301.935 89.184ZM377.019 93.152C372.667 93.152 368.912 92.6827 365.755 91.744C362.683 90.8053 360.123 89.3547 358.075 87.392C356.027 85.4293 354.491 82.9547 353.467 79.968C352.528 76.896 352.059 73.2693 352.059 69.088V17.12C352.059 15.4133 352.187 13.8773 352.443 12.512C352.784 11.1467 353.638 10.0373 355.003 9.184C356.368 8.24533 358.587 7.77599 361.659 7.77599C364.731 7.77599 366.95 8.24533 368.315 9.184C369.68 10.1227 370.491 11.3173 370.747 12.768C371.088 14.2187 371.259 15.7973 371.259 17.504V68.32C371.259 69.6853 371.344 70.8373 371.515 71.776C371.771 72.6293 372.112 73.2693 372.539 73.696C372.966 74.1227 373.563 74.4213 374.331 74.592C375.099 74.7627 376.038 74.848 377.147 74.848C379.024 74.848 380.688 75.0187 382.139 75.36C383.59 75.7013 384.699 76.4693 385.467 77.664C386.32 78.8587 386.747 80.864 386.747 83.68C386.747 86.752 386.278 88.9707 385.339 90.336C384.4 91.7013 383.163 92.512 381.627 92.768C380.176 93.024 378.64 93.152 377.019 93.152ZM348.091 30.176H362.171L379.835 29.664C381.456 29.664 382.992 29.8347 384.443 30.176C385.894 30.432 387.088 31.2427 388.027 32.608C388.966 33.9733 389.435 36.2347 389.435 39.392C389.435 42.2933 388.966 44.4267 388.027 45.792C387.174 47.1573 386.022 48.0533 384.571 48.48C383.12 48.8213 381.542 48.992 379.835 48.992L363.067 48.608H347.579C345.104 48.5227 343.355 47.7973 342.331 46.432C341.392 44.9813 340.923 42.592 340.923 39.264C340.923 36.192 341.52 33.9307 342.715 32.48C343.91 30.944 345.702 30.176 348.091 30.176ZM427.468 94.176C423.457 94.176 419.447 93.408 415.436 91.872C411.511 90.2507 407.927 87.9893 404.684 85.088C401.441 82.1867 398.881 78.7307 397.004 74.72C395.127 70.624 394.188 66.1013 394.188 61.152C394.188 56.544 395.041 52.2773 396.748 48.352C398.455 44.3413 400.844 40.8 403.916 37.728C406.988 34.656 410.487 32.2667 414.412 30.56C418.423 28.768 422.689 27.872 427.212 27.872C433.356 27.872 438.903 29.3653 443.852 32.352C448.887 35.2533 452.897 39.2213 455.884 44.256C458.871 49.2907 460.364 54.88 460.364 61.024C460.364 66.2293 459.383 70.88 457.42 74.976C455.543 78.9867 452.983 82.4427 449.74 85.344C446.583 88.2453 443.041 90.464 439.116 92C435.276 93.4507 431.393 94.176 427.468 94.176ZM427.212 74.848C429.26 74.848 431.351 74.336 433.484 73.312C435.617 72.288 437.409 70.752 438.86 68.704C440.311 66.656 441.036 64.0533 441.036 60.896C441.036 58.1653 440.439 55.776 439.244 53.728C438.049 51.68 436.385 50.1013 434.252 48.992C432.204 47.7973 429.815 47.2 427.084 47.2C424.524 47.2 422.22 47.7973 420.172 48.992C418.209 50.1867 416.588 51.8507 415.308 53.984C414.113 56.032 413.516 58.3787 413.516 61.024C413.516 64.096 414.199 66.6987 415.564 68.832C417.015 70.88 418.807 72.416 420.94 73.44C423.073 74.3787 425.164 74.848 427.212 74.848ZM495.64 93.024C491.8 93.024 488.088 92.2133 484.504 90.592C481.005 88.8853 477.891 86.5387 475.16 83.552C472.429 80.5653 470.253 77.152 468.632 73.312C467.096 69.3867 466.328 65.248 466.328 60.896C466.328 56.7147 467.096 52.7467 468.632 48.992C470.253 45.152 472.429 41.7813 475.16 38.88C477.976 35.8933 481.133 33.5467 484.632 31.84C488.131 30.1333 491.8 29.28 495.64 29.28C499.736 29.28 503.32 30.1333 506.392 31.84C509.549 33.4613 512.195 35.7227 514.328 38.624C516.461 41.5253 518.04 44.896 519.064 48.736C520.173 52.576 520.771 56.5867 520.856 60.768C520.941 65.12 520.429 69.216 519.32 73.056C518.296 76.896 516.717 80.3093 514.584 83.296C512.451 86.2827 509.805 88.672 506.648 90.464C503.576 92.1707 499.907 93.024 495.64 93.024ZM498.2 74.08C500.504 74.08 502.552 73.5253 504.344 72.416C506.221 71.2213 507.715 69.6427 508.824 67.68C510.019 65.7173 510.616 63.5413 510.616 61.152C510.616 58.6773 510.061 56.5013 508.952 54.624C507.843 52.6613 506.349 51.1253 504.472 50.016C502.595 48.9067 500.461 48.352 498.072 48.352C495.768 48.352 493.635 48.9067 491.672 50.016C489.795 51.1253 488.301 52.6613 487.192 54.624C486.168 56.5013 485.656 58.6773 485.656 61.152C485.656 63.5413 486.211 65.7173 487.32 67.68C488.429 69.6427 489.965 71.2213 491.928 72.416C493.891 73.5253 495.981 74.08 498.2 74.08ZM520.6 93.152C517.699 93.152 515.523 92.6827 514.072 91.744C512.621 90.8053 511.683 89.3547 511.256 87.392V9.824C511.256 8.20266 511.341 6.66666 511.512 5.216C511.768 3.68 512.536 2.44266 513.816 1.504C515.096 0.565328 517.315 0.095993 520.472 0.095993C523.629 0.095993 525.848 0.565328 527.128 1.504C528.493 2.35733 529.304 3.50933 529.56 4.96C529.901 6.41066 530.072 7.98933 530.072 9.696V83.424C530.072 85.0453 529.901 86.624 529.56 88.16C529.304 89.6107 528.493 90.8053 527.128 91.744C525.848 92.6827 523.672 93.152 520.6 93.152ZM571.093 94.176C567.082 94.176 563.072 93.408 559.061 91.872C555.136 90.2507 551.552 87.9893 548.309 85.088C545.066 82.1867 542.506 78.7307 540.629 74.72C538.752 70.624 537.813 66.1013 537.813 61.152C537.813 56.544 538.666 52.2773 540.373 48.352C542.08 44.3413 544.469 40.8 547.541 37.728C550.613 34.656 554.112 32.2667 558.037 30.56C562.048 28.768 566.314 27.872 570.837 27.872C576.981 27.872 582.528 29.3653 587.477 32.352C592.512 35.2533 596.522 39.2213 599.509 44.256C602.496 49.2907 603.989 54.88 603.989 61.024C603.989 66.2293 603.008 70.88 601.045 74.976C599.168 78.9867 596.608 82.4427 593.365 85.344C590.208 88.2453 586.666 90.464 582.741 92C578.901 93.4507 575.018 94.176 571.093 94.176ZM570.837 74.848C572.885 74.848 574.976 74.336 577.109 73.312C579.242 72.288 581.034 70.752 582.485 68.704C583.936 66.656 584.661 64.0533 584.661 60.896C584.661 58.1653 584.064 55.776 582.869 53.728C581.674 51.68 580.01 50.1013 577.877 48.992C575.829 47.7973 573.44 47.2 570.709 47.2C568.149 47.2 565.845 47.7973 563.797 48.992C561.834 50.1867 560.213 51.8507 558.933 53.984C557.738 56.032 557.141 58.3787 557.141 61.024C557.141 64.096 557.824 66.6987 559.189 68.832C560.64 70.88 562.432 72.416 564.565 73.44C566.698 74.3787 568.789 74.848 570.837 74.848Z" fill="black"/>
</svg>
